<svg xmlns="http://www.w3.org/2000/svg" xmlns:xlink="http://www.w3.org/1999/xlink" viewBox="0 0 334.58 75.85"><defs><style>.cls-1{fill:#4e4e4e;}.cls-2{fill:url(#Degradado_sin_nombre_6);}.cls-3{fill:url(#Degradado_sin_nombre_18);}</style><linearGradient id="Degradado_sin_nombre_6" y1="37.93" x2="89.71" y2="37.93" gradientUnits="userSpaceOnUse"><stop offset="0" stop-color="#07b186"/><stop offset="1" stop-color="#07b186"/></linearGradient><linearGradient id="Degradado_sin_nombre_18" x1="69.78" y1="52.1" x2="89.73" y2="52.1" gradientUnits="userSpaceOnUse"><stop offset="0" stop-color="#fd9c1d"/><stop offset="1" stop-color="#fd951d"/></linearGradient></defs><title>Logo Loro</title><g id="Capa_2" data-name="Capa 2"><g id="Texto_1" data-name="Texto 1"><path class="cls-1" d="M108.37,12.38a1.62,1.62,0,0,1,.44-1.13,1.57,1.57,0,0,1,1.2-.47h10.77a1.64,1.64,0,0,1,1.12.44,1.59,1.59,0,0,1,.55,1.16V52h20a1.56,1.56,0,0,1,1.6,1.64v9.56a1.72,1.72,0,0,1-.42,1.13,1.56,1.56,0,0,1-1.18.55H110a1.42,1.42,0,0,1-1.6-1.6Z"/><path class="cls-1" d="M148.57,37.88a27.66,27.66,0,0,1,3.78-14.06,28.89,28.89,0,0,1,4.35-5.66,27.28,27.28,0,0,1,5.63-4.34A28.12,28.12,0,0,1,169,11a27.88,27.88,0,0,1,14.8,0,27.88,27.88,0,0,1,12.3,7.14,27.43,27.43,0,0,1,4.35,5.66,28.45,28.45,0,0,1,2.8,6.66,27.88,27.88,0,0,1,0,14.8,27.8,27.8,0,0,1-2.8,6.62,27.07,27.07,0,0,1-4.35,5.6,28.3,28.3,0,0,1-5.64,4.35,26.91,26.91,0,0,1-6.66,2.8,28.15,28.15,0,0,1-14.8,0,26.93,26.93,0,0,1-6.64-2.8,27.68,27.68,0,0,1-5.63-4.35,28.51,28.51,0,0,1-4.35-5.6,27.4,27.4,0,0,1-2.8-6.62A27.76,27.76,0,0,1,148.57,37.88Zm14.08,0a15.35,15.35,0,0,0,1,5.64,14,14,0,0,0,2.85,4.57,13.34,13.34,0,0,0,9.87,4.16,13.64,13.64,0,0,0,5.54-1.11,13.45,13.45,0,0,0,4.36-3.05,14,14,0,0,0,2.85-4.57,16,16,0,0,0,0-11.26,14.26,14.26,0,0,0-2.85-4.6,13.58,13.58,0,0,0-19.77,0,14.26,14.26,0,0,0-2.85,4.6A15.48,15.48,0,0,0,162.65,37.84Z"/><path class="cls-1" d="M213.17,12.49a1.81,1.81,0,0,1,.4-1.22,1.53,1.53,0,0,1,1.2-.45h23.5a17.53,17.53,0,0,1,7,1.4A18.11,18.11,0,0,1,251,16a17.55,17.55,0,0,1,3.84,5.62,16.87,16.87,0,0,1,1.4,6.86,16.3,16.3,0,0,1-.67,4.71,17.68,17.68,0,0,1-1.87,4.18,18,18,0,0,1-2.86,3.53,18.69,18.69,0,0,1-3.62,2.71l9.35,17.6c.17.34.39.74.65,1.2a2.55,2.55,0,0,1,.41,1.2,1.09,1.09,0,0,1-.39.9,1.62,1.62,0,0,1-1,.31H243.73a1.85,1.85,0,0,1-1.11-.37,1.65,1.65,0,0,1-.64-1l-8.84-16.62h-5.89v16.4c0,1-.56,1.57-1.67,1.57H214.77a1.68,1.68,0,0,1-1.16-.39,1.49,1.49,0,0,1-.44-1.18Zm28.49,16.15a6.45,6.45,0,0,0-.4-2.18,7.17,7.17,0,0,0-1.13-2,6.59,6.59,0,0,0-1.75-1.53,6,6,0,0,0-2.25-.8L234.22,22c-.6,0-1.25-.05-1.95-.05h-5V35.3h6.69c.44,0,.83,0,1.17,0s.71-.06,1.13-.11a5.67,5.67,0,0,0,2.29-.74,5.89,5.89,0,0,0,1.71-1.5,6.48,6.48,0,0,0,1-2A7.29,7.29,0,0,0,241.66,28.64Z"/><path class="cls-1" d="M261.77,37.88a27.54,27.54,0,0,1,3.79-14.06,28.14,28.14,0,0,1,4.35-5.66,27.22,27.22,0,0,1,5.62-4.34,28.3,28.3,0,0,1,6.64-2.8A27.88,27.88,0,0,1,297,11a28.09,28.09,0,0,1,6.66,2.8,27.53,27.53,0,0,1,10,10,28.47,28.47,0,0,1,2.81,6.66,27.88,27.88,0,0,1,0,14.8,27.83,27.83,0,0,1-2.81,6.62,27.07,27.07,0,0,1-4.35,5.6,28,28,0,0,1-5.64,4.35,26.91,26.91,0,0,1-6.66,2.8,28.15,28.15,0,0,1-14.8,0,27.09,27.09,0,0,1-6.64-2.8,28.28,28.28,0,0,1-10-10,27,27,0,0,1-2.81-6.62A27.76,27.76,0,0,1,261.77,37.88Zm14.08,0a15.36,15.36,0,0,0,1,5.64,13.69,13.69,0,0,0,2.85,4.57,13.3,13.3,0,0,0,9.86,4.16,13.6,13.6,0,0,0,5.54-1.11,13.34,13.34,0,0,0,4.36-3.05,14,14,0,0,0,2.85-4.57,16,16,0,0,0,0-11.26,14.26,14.26,0,0,0-2.85-4.6,13.3,13.3,0,0,0-4.36-3.09,13.54,13.54,0,0,0-15.4,3.09,13.92,13.92,0,0,0-2.85,4.6A15.48,15.48,0,0,0,275.85,37.84Z"/><path class="cls-2" d="M89.71,39.91A41.22,41.22,0,0,0,80.37,15a40.11,40.11,0,0,0-20.13-13A39.51,39.51,0,0,0,39,2.19a38.14,38.14,0,0,0-3.64,1.26,15.27,15.27,0,0,1-3,1.19,14.88,14.88,0,0,1-8.65-1.59C22,2.12,20.82.34,18.79.05a4.73,4.73,0,0,0-4.93,2.66c-2.1,4.54,3.62,7.91,7.05,9.38-1,.06-2,.39-3,.52a26,26,0,0,1-3.74.25A18.73,18.73,0,0,1,10,12.42a34.83,34.83,0,0,1-3.75-1.49A4.69,4.69,0,0,0,.7,17.82a7.24,7.24,0,0,0,3.59,2.57,25.52,25.52,0,0,0,10.76,1.85,37.8,37.8,0,0,0,4.17,39.67A36.27,36.27,0,0,0,34.9,73.44a38.72,38.72,0,0,0,10.18,2.23c1.79.14,4.15.54,5.7-.57a3.62,3.62,0,0,0,1.33-4,3.68,3.68,0,0,0-3.29-2.47,35.74,35.74,0,0,1-6.42-1,27,27,0,0,1-8-3.55A28,28,0,0,1,23.51,50.54a27.41,27.41,0,0,1,0-19A26.14,26.14,0,0,1,39,16.14a25.73,25.73,0,0,1,17.85.25,24.59,24.59,0,0,1,15,17.83,25.21,25.21,0,0,1,.41,5.69Z"/><circle class="cls-1" cx="51.71" cy="37.92" r="6.5"/><path class="cls-3" d="M89.71,40v-.11H72.31a22,22,0,0,1-.38,3.35,22.73,22.73,0,0,1-1.35,4.53,10,10,0,0,0-.36,6.85c1.29,4.12,4.48,9.65,12.31,9.65h0A41.09,41.09,0,0,0,89.71,40Z"/><path class="cls-1" d="M332.83,16.09H322.47a1.76,1.76,0,0,1-1.76-1.76V4a1.76,1.76,0,0,1,1.76-1.75h10.36A1.75,1.75,0,0,1,334.58,4V14.33A1.75,1.75,0,0,1,332.83,16.09ZM322.47,2.92A1,1,0,0,0,321.42,4V14.33a1.06,1.06,0,0,0,1.05,1.06h10.36a1.06,1.06,0,0,0,1.05-1.06V4a1,1,0,0,0-1.05-1.05Z"/><path class="cls-1" d="M324.72,6h1.35v6.27h-3.34V11h2Z"/><path class="cls-1" d="M329.23,10.35V6h1.34V11h2v1.34h-3.34V10.35"/></g></g></svg>